<?xml version="1.0" encoding="utf-8"?>
<!-- Generator: Adobe Illustrator 18.1.1, SVG Export Plug-In . SVG Version: 6.00 Build 0)  -->
<svg version="1.1" id="Ebene_1" xmlns="http://www.w3.org/2000/svg" xmlns:xlink="http://www.w3.org/1999/xlink" x="0px" y="0px"
	 viewBox="0 0 311.4 338.2" enable-background="new 0 0 311.4 338.2" xml:space="preserve">
<path fill="#66CC66" d="M282.3,54.6c-68.1-32.5-175.8-54-175.8-54c-46-7.5-39.3,48.2-38.2,85.5c0.1,2.9,0.2,5.7,0.4,8.6
	c32.9,6.2,83.5,16.9,123.3,31.3c48.1,17.3,40.6,34.9,39,67.5c-1,20.7-1.8,59,4.7,90.2c32.4,5.8,58.4,7.9,55.3-1.1
	c-26.6-30.4-0.2-125.2,7.6-144.5C305.5,121.2,330.9,77.9,282.3,54.6z"/>
<path fill="#66CC66" d="M249.2,331.8c-27.5-23.7-26.3-99.7-24.7-132.3c1.6-32.6,9-50.2-39-67.5C120.9,108.6,28,94.7,28,94.7
	C-10.4,90.1,0.3,130.1,5,158.4c7.2,42.1,22.8,92.9,33.5,117.4c12,27.7,37.5,30.7,37.5,30.7S276.7,355.4,249.2,331.8z"/>
</svg>
